<svg xmlns="http://www.w3.org/2000/svg" xmlns:xlink="http://www.w3.org/1999/xlink" viewBox="0 0 45.83 34.37"><defs><style>.cls-1{fill:#e0e1e0;}.cls-2{fill:#d9d9d8;}.cls-3{fill:#eeedee;}.cls-4{fill:url(#linear-gradient);}.cls-5{fill:#f5f6f6;}.cls-6{fill:url(#linear-gradient-2);}</style><linearGradient id="linear-gradient" x1="22.92" y1="34.37" x2="22.92" y2="2.04" gradientUnits="userSpaceOnUse"><stop offset="0" stop-color="#aa9b54"/><stop offset="0.5" stop-color="#e1ca6d"/><stop offset="1" stop-color="#aa9a53"/></linearGradient><linearGradient id="linear-gradient-2" x1="22.92" y1="21.1" x2="22.92" y2="0.09" xlink:href="#linear-gradient"/></defs><title>gmail-logo</title><g id="Layer_2" data-name="Layer 2"><g id="Layer_1-2" data-name="Layer 1"><g id="surface1"><path class="cls-1" d="M3.65,34.37H42.19a3.64,3.64,0,0,0,3.64-3.64V3.65A3.64,3.64,0,0,0,42.19,0H3.65A3.64,3.64,0,0,0,0,3.65V30.73A3.64,3.64,0,0,0,3.65,34.37Z"/><path class="cls-2" d="M25,34.37H42.19a3.64,3.64,0,0,0,3.64-3.64V3.65A3.64,3.64,0,0,0,42.19,0H3.65A3.64,3.64,0,0,0,0,3.65Z"/><path class="cls-3" d="M4.94,34.37H42.19a3.64,3.64,0,0,0,3.64-3.64V4.17Z"/><path class="cls-1" d="M24.74,34.37H42.19a3.64,3.64,0,0,0,3.64-3.64V4.17l-28.36,21Z"/><path class="cls-4" d="M42.19,2.08H3.65C1.63,2.08,0,1.63,0,3.65V30.73a3.64,3.64,0,0,0,3.65,3.64H5.21V4.69H40.62V34.37h1.57a3.64,3.64,0,0,0,3.64-3.64V3.65C45.83,1.63,44.2,2.08,42.19,2.08Z"/><path class="cls-5" d="M42.19,0H3.65A3.63,3.63,0,0,0,0,3.65C0,4.9,1.58,6,1.58,6L22.92,21.1,44.25,6s1.58-1.1,1.58-2.35A3.62,3.62,0,0,0,42.19,0Z"/><path class="cls-6" d="M43,.09l-20,14-20-14A3.61,3.61,0,0,0,0,3.65C0,4.9,1.58,6,1.58,6L22.92,21.1,44.25,6s1.58-1.1,1.58-2.35A3.61,3.61,0,0,0,43,.09Z"/></g></g></g></svg>