<svg xmlns="http://www.w3.org/2000/svg" viewBox="0 0 153.33 149.9"><defs><style>.cls-1{fill:#836af0;}</style></defs><title>voi-logo</title><g id="Layer_2" data-name="Layer 2"><g id="Layer_1-2" data-name="Layer 1"><path class="cls-1" d="M76.66,149.9C34.39,149.9,0,116.28,0,75S34.39,0,76.66,0s76.67,33.62,76.67,75S118.94,149.9,76.66,149.9m0-134.44c-33.55,0-60.85,26.68-60.85,59.5s27.3,59.48,60.85,59.48S137.52,107.76,137.52,75s-27.3-59.5-60.86-59.5"/><path class="cls-1" d="M73.82,59a3.29,3.29,0,0,1-1.31-5.5A18.76,18.76,0,0,1,78,49.91,50.79,50.79,0,0,1,91.61,46a81.93,81.93,0,0,1,10.52-1.31c6.09-.11,5.44,5.34,5.44,5.34-.37,3.42-.84,7.58-1.27,10.33a47.37,47.37,0,0,1-4,13.36,18.28,18.28,0,0,1-3.77,5.39A3.41,3.41,0,0,1,93,77.85,29.77,29.77,0,0,0,73.82,59"/><path class="cls-1" d="M45.67,99.8c.21-3.42.83-6.83,1.35-10.28a47.54,47.54,0,0,1,4-13.33,16.29,16.29,0,0,1,8.19-8.38c4.34-2,8.47-1.1,10.81,2.21a10,10,0,0,1,.55,9.62,1,1,0,0,0,1.28,1.25c2.51-1,6.32-1.73,9.85.54S85.93,87.76,83.94,92a16.45,16.45,0,0,1-8.57,8,50.68,50.68,0,0,1-13.64,3.87c-2.83.43-7.09.88-10.58,1.23,0,0-5.82.42-5.48-5.32"/></g></g></svg>